<svg xmlns="http://www.w3.org/2000/svg" width="24" height="24" viewBox="0 0 24 24">
    <g fill="none" fill-rule="evenodd">
        <path fill="#FFF" d="M12 23.246C5.797 23.246.75 18.2.75 11.998.75 5.796 5.797.75 12 .75c6.204 0 11.25 5.046 11.25 11.248 0 6.202-5.046 11.248-11.25 11.248"/>
        <path fill="#16254F" d="M6.455 18.75a1.204 1.204 0 0 1-.852-2.056l11.09-11.091a1.204 1.204 0 1 1 1.704 1.703L7.307 18.397a1.201 1.201 0 0 1-.852.353"/>
        <path fill="#16254F" d="M17.545 18.75c-.308 0-.616-.118-.851-.353L5.603 7.307a1.204 1.204 0 1 1 1.703-1.704l11.091 11.09a1.204 1.204 0 0 1-.852 2.057"/>
    </g>
</svg>
