<svg xmlns="http://www.w3.org/2000/svg" width="20" height="20" viewBox="0 0 20 20">
    <path fill="#16254F" fill-rule="evenodd" d="M10.064 16.308l4.533 2.495c.186.1.372.1.463.1.186 0 .371-.1.556-.2.278-.2.463-.5.37-.898l-.832-5.49 3.701-3.892c.184-.201.278-.5.184-.899-.091-.3-.462-.599-.647-.599l-5.183-.7-2.22-4.79c-.37-.399-.925-.498-1.481-.299l-.37.4-2.22 4.89-5.182.798c-.279.1-.648.2-.742.6-.184.3 0 .599.279.798l3.794 3.993-.74 5.389c-.094.3.091.698.277.8.37.198.74.198 1.11.099l4.35-2.595zM15.06 20c-.277 0-.648-.099-.832-.3l-4.164-2.195L5.992 19.8c-.648.3-1.388.199-1.943-.1-.556-.299-.925-1.097-.741-1.796l.741-4.791L.625 9.42C.07 8.82-.115 8.123.07 7.424c.185-.598.741-1.098 1.482-1.198l4.812-.798 2.034-4.392c.094-.3.371-.499.742-.8 1.018-.498 2.128-.198 2.59.8l2.037 4.392 4.626.699c.556 0 1.203.499 1.481 1.198.277.698.092 1.597-.463 1.996l-3.331 3.493.832 4.89c.093.799-.185 1.497-.74 1.898-.37.3-.74.398-1.11.398z"/>
</svg>
